<mxfile host="app.diagrams.net" modified="2023-04-06T22:09:26.846Z" agent="Mozilla/5.0 (X11; Linux x86_64) AppleWebKit/537.36 (KHTML, like Gecko) Chrome/111.0.0.0 Safari/537.36" etag="h38xNr0ZlVpxT9k3ucER" version="21.1.2" type="github">
  <diagram name="Page-1" id="55a83fd1-7818-8e21-69c5-c3457e3827bb">
    <mxGraphModel dx="1434" dy="752" grid="1" gridSize="10" guides="1" tooltips="1" connect="1" arrows="1" fold="1" page="1" pageScale="1" pageWidth="1100" pageHeight="850" background="none" math="0" shadow="0">
      <root>
        <mxCell id="0" />
        <mxCell id="1" parent="0" />
        <mxCell id="h9fLuppz6c3Ee6yRtKW5-1" value="&lt;font style=&quot;font-size: 24px;&quot; face=&quot;Times New Roman&quot;&gt;Canyon Aeronautics Network Design&lt;br&gt;Megan G. Howell&lt;br&gt;ITT-116 (Kellen Reed)&lt;/font&gt;" style="text;html=1;strokeColor=none;fillColor=none;align=center;verticalAlign=middle;whiteSpace=wrap;rounded=0;" vertex="1" parent="1">
          <mxGeometry x="420" y="40" width="280" height="50" as="geometry" />
        </mxCell>
        <mxCell id="h9fLuppz6c3Ee6yRtKW5-2" value="Leadership Team&lt;br&gt;20 engineers&lt;br&gt;5 draftsmen&lt;br&gt;7 technicians&lt;br&gt;IT/Clerical staff (~40 people, 20% growth is 48 people)" style="text;html=1;strokeColor=none;fillColor=none;align=center;verticalAlign=middle;whiteSpace=wrap;rounded=0;" vertex="1" parent="1">
          <mxGeometry x="730" y="50" width="240" height="30" as="geometry" />
        </mxCell>
      </root>
    </mxGraphModel>
  </diagram>
</mxfile>
